<svg width="70" height="72" viewBox="0 0 70 72" fill="none" xmlns="http://www.w3.org/2000/svg"><path d="M27.64 65h15V41.2h-15V65Zm2.72-20.9h9.47v18h-9.47v-18Z" fill="#83B3D3"/><path d="M68.03 39.3 70 37.2l-9.28-9.9V0H47.7v13.6L34.95 0 0 37.2l1.97 2.1 7.3-7.8v37.6H5.54V72H65.4v-2.9h-4.78V31.5l7.4 7.8ZM57.91 69.1H12V28.5L34.95 4.1l22.96 24.4v40.6Zm0-44.7-7.4-7.9V2.9h7.4v21.5Z" fill="#83B3D3"/><path d="M27.83 27.1c0 4.3 3.28 7.7 7.22 7.7 4.03 0 7.3-3.5 7.3-7.7 0-4.3-3.27-7.7-7.3-7.7-3.94 0-7.22 3.4-7.22 7.7Zm7.31-5c2.53 0 4.69 2.2 4.69 4.9s-2.07 4.9-4.69 4.9a4.84 4.84 0 0 1-4.68-4.9c0-2.7 2.06-4.9 4.68-4.9ZM18.65 41.2h-2.81v3.9h2.8v-3.9ZM24.18 41.2h-2.81v3.9h2.8v-3.9ZM18.65 47.2h-2.81v3.9h2.8v-3.9ZM24.18 47.2h-2.81v3.9h2.8v-3.9ZM48.54 41.2h-2.81v3.9h2.81v-3.9ZM54.07 41.2h-2.81v3.9h2.81v-3.9ZM48.54 47.2h-2.81v3.9h2.81v-3.9ZM54.07 47.2h-2.81v3.9h2.81v-3.9Z" fill="#83B3D3"/></svg>