<svg width="70" height="72" viewBox="0 0 70 72" fill="none" xmlns="http://www.w3.org/2000/svg"><path d="M66.83 21.28H39.7C54.8 14.74 56 10.57 55.45 8.29c-1.3-3.79-6.23-6.63-10.93-5.12-6.13 2-7.77 9.86-9.41 15.55-2.19-5.78-4.16-13.08-8.97-16.78A8.75 8.75 0 0 0 19.8.04c-4.38.38-10.72 5.12-8.2 10.43 2.5 5.12 10.6 8.35 15.96 10.9H3.17C1.42 21.38 0 22.62 0 24.13v10.72c0 1.51 1.42 2.75 3.17 2.75h.33V72h63.22V37.49h.1c1.76 0 3.18-1.23 3.18-2.75V24.03c0-1.52-1.42-2.75-3.17-2.75ZM46.38 5.54c2.3-.28 5.46 1.24 5.8 3.04.43 2.65-3.73 5.02-5.59 6.06-2.73 1.62-5.36 2.47-7.98 3.9.98-3.52 2.73-12.33 7.77-13Zm-25.05 9.48c-2.4-1.42-7.11-4.17-7-7.4.1-3.4 6.23-6.25 9.62-3.69 4.27 3.22 6.24 10.52 7.77 15.74-3.5-1.42-6.9-2.66-10.4-4.65Zm6.56 54.14H6.67V37.49H27.9v31.67Zm0-34.6H3.3V24.11h24.6v10.43Zm11.16 0v34.6h-7.88V24.22h7.88v10.33Zm24.39 34.6H42.22V37.49h21.22v31.67Zm3.17-34.6H42.2V24.11h24.4v10.43Z" fill="#83B3D3"/></svg>